# xmcd
#
# Track frame offsets: 
#        150
#        20913
#        40389
#        63898
#        86497
#        106909
#        129492
#        144754
#        161745
#        173507
#        185134
#        201069
#        219241
#        240173
#        262079
#        277761
#        295977
#        307154
#        322963
#
# Disc length: 4490 seconds
#
# Revision: 0
# Processed by: cddbd v1.5.1PL0 Copyright (c) Steve Scherf et al.
# Submitted via: ExactAudioCopy v0.95a5
#
DISCID=0d118813
DTITLE=Loaded Dice Featuring Danny Vitale - Loaded Dice Live (August 7
DTITLE=, 2005)
DYEAR=2005
DGENRE=Blues
TTITLE0=Lil' Dog
TTITLE1=Reelin' and Rockin'
TTITLE2=Woke Up This Morning
TTITLE3=Love Struck
TTITLE4=Lillie Mae
TTITLE5=The Hustle Is On
TTITLE6=Alright, Okay
TTITLE7=Don't You Know
TTITLE8=Sea Cruise
TTITLE9=Blueberry Hill
TTITLE10=Baby I'm Gone
TTITLE11=Shake 'Em Up
TTITLE12=Too Tired
TTITLE13=I'm Sorry
TTITLE14=Well, Oh Well
TTITLE15=Rock On
TTITLE16=I Know You Don't Love Me No More
TTITLE17=If You Love Me Like You Say
TTITLE18=Come On, Let's Boogie
EXTD=Loaded Dice Featuring Danny Vitale\nBeverly Homecoming\nLynch Par
EXTD=k\nBeverly, MA\n\nSunday, August 7, 2005 3:30pm\n\nVocals - Danny
EXTD=Vitale\nDrums - Joey Sullivan\nBass - Kenny "Doc" Grace\nGuitar 
EXTD=Rob Nelson\nPiano - Mark Taber\nTrombone - Carl Querfurth\nTrum
EXTD=pet - John Abrahamsen\nSaxophone - Robert Lyons
EXTT0=
EXTT1=
EXTT2=
EXTT3=
EXTT4=
EXTT5=
EXTT6=
EXTT7=
EXTT8=
EXTT9=
EXTT10=
EXTT11=
EXTT12=
EXTT13=
EXTT14=
EXTT15=
EXTT16=
EXTT17=
EXTT18=
PLAYORDER=
